<mxfile host="app.diagrams.net" modified="2024-06-18T02:08:31.027Z" agent="Mozilla/5.0 (Windows NT 10.0; Win64; x64) AppleWebKit/537.36 (KHTML, like Gecko) Chrome/125.0.0.0 Safari/537.36" version="24.5.5" etag="WRAo2JwiSGq3PQgjdCS6" type="github">
  <diagram name="Page-1" id="M-7NG7xgNWCouUsRCeGp">
    <mxGraphModel>
      <root>
        <mxCell id="0" />
        <mxCell id="1" parent="0" />
      </root>
    </mxGraphModel>
  </diagram>
</mxfile>
